<?xml version="1.0" encoding="utf-8"?>
<svg width="256" height="256" viewBox="0 0 256 256" fill="none" xmlns="http://www.w3.org/2000/svg">
  <defs>
    <clipPath id="clip_path_1">
      <rect width="153" height="119" rx="46" />
    </clipPath>
  </defs>
  <g>
    <rect width="256" height="256" fill="#000000" fill-rule="evenodd" />
    <path id="Rectangle Subtract" d="M195 13C195 5.81932 189.181 0 182 0L13 0C5.81932 0 0 5.81932 0 13L0 32C0 39.1807 5.81932 45 13 45L90 45C90 29.5339 102.534 17 118 17L179 17C184.949 17 190.465 18.8547 195 22.0175L195 13Z" fill="#FFECB3" fill-rule="evenodd" transform="translate(31 35)" />
    <g clip-path="url(#clip_path_1)" transform="translate(55 106)">
      <rect width="153" height="119" />
      <path id="Rectangle" d="M139.223 0C144.198 0 148.23 4.03218 148.23 9.00763L148.23 9.00763C148.23 13.9831 144.198 18.0153 139.223 18.0153L9.00763 18.0153C4.03218 18.0153 0 13.9831 0 9.00763L0 9.00763C0 4.03218 4.03218 0 9.00763 0L139.223 0Z" fill="#FFECB3" transform="translate(2.77 0)" />
      <rect id="Rectangle" width="148.23" height="18.015" fill="#FFECB3" fill-rule="evenodd" transform="translate(2.77 33.328)" />
      <g fill="#FFECB3" transform="translate(2.77 66.656)">
        <path id="Rectangle" d="M139.223 0C144.198 0 148.23 4.03218 148.23 9.00763L148.23 9.00763C148.23 13.9831 144.198 18.0153 139.223 18.0153L9.00763 18.0153C4.03218 18.0153 0 13.9831 0 9.00763L0 9.00763C0 4.03218 4.03218 0 9.00763 0L139.223 0Z" />
        <path d="M148.23 9.00763C148.23 4.03218 144.198 0 139.223 0L9.00763 0C4.03218 0 0 4.03218 0 9.00763C0 13.9831 4.03218 18.0153 9.00763 18.0153L139.223 18.0153C144.198 18.0153 148.23 13.9831 148.23 9.00763ZM9.00763 1L139.223 1Q142.54 1 144.885 3.34513Q147.23 5.69025 147.23 9.00763Q147.23 12.325 144.885 14.6701Q142.54 17.0153 139.223 17.0153L9.00763 17.0153Q5.69025 17.0153 3.34513 14.6701Q1 12.325 1 9.00763Q1 5.69025 3.34513 3.34513Q5.69026 1 9.00763 1Z" fill="#8785DD" fill-rule="evenodd" />
      </g>
      <path id="Rectangle" d="M146.311 0C147.371 0 148.23 0.859314 148.23 1.91966L148.23 1.91966C148.23 10.8102 141.025 18.0153 132.135 18.0153L1.22617 18.0153C0.548883 18.0153 0 17.4664 0 16.7891L0 16.7891C0 7.51547 7.51547 0 16.7891 0L146.311 0Z" fill="#FFECB3" transform="translate(2.77 99.985)" />
    </g>
    <path id="Rectangle" d="M16 0C24.8378 0 32 7.16224 32 16L32 16C32 24.8378 24.8378 32 16 32L16 32C7.16224 32 0 24.8378 0 16L0 16C0 7.16224 7.16224 0 16 0Z" fill="#536DFE" transform="translate(23 19)" />
  </g>
</svg>